# xmcd
#
# Track frame offsets:
#	150
#	18226
#	33827
#	46360
#	65269
#	77222
#	91574
#	108625
#	127060
#	140317
#	153537
#	170316
#	175208
#
# Disc length: 2543 seconds
# Revision: 0
# Processed by: cddbd v1.5.2PL0 Copyright (c) Steve Scherf et al.
# Submitted via: dBpowerAMP V12.0
#
DISCID=9f09ed0d
DTITLE=Ned LeDoux - Next In Line
DYEAR=2019
DGENRE=Western
TTITLE0=Old Fashioned
TTITLE1=Worth It
TTITLE2=Dance With Your Spurs On (w/Corb Lund)
TTITLE3=Next In Line
TTITLE4=A Cowboy Is All
TTITLE5=Where You Belong
TTITLE6=Travel Alone
TTITLE7=Path Of Broken Dreams
TTITLE8=A Little Bit Better (feat. Mac McAnally)
TTITLE9=Almost Saturday Night
TTITLE10=Great Plains
TTITLE11=Chris LeDoux Intro
TTITLE12=Homegrown Western Saturday Night
EXTD=
EXTT0=
EXTT1=
EXTT2=
EXTT3=
EXTT4=
EXTT5=
EXTT6=
EXTT7=
EXTT8=
EXTT9=
EXTT10=
EXTT11=
EXTT12=
PLAYORDER=
